<svg xmlns="http://www.w3.org/2000/svg" width="227.7" height="70.9" viewBox="0 0 227.7 70.9"><g id="Ebene_2" data-name="Ebene 2"><g id="Ebene_1-2" data-name="Ebene 1"><path d="M45.6,70.9H70.9V0h0ZM13.6,0,36.1,64.4,57.8,0ZM0,0H0V70.9H26.1Z" style="fill:#dbdbdb"/><path d="M89.8,64.1H89L82.3,48h3l4.2,11,4.3-11h2.9Z" style="fill:#dbdbdb"/><path d="M112.7,56.2H101.4a5.7,5.7,0,0,0,1.5,4.2,4.5,4.5,0,0,0,3.4,1.3,5.9,5.9,0,0,0,4-1.4l1.2,2a4.2,4.2,0,0,1-2,1.1,10.6,10.6,0,0,1-3.7.7,6.9,6.9,0,0,1-5.1-2.1,7.8,7.8,0,0,1-2.3-5.9,8.5,8.5,0,0,1,2.4-6.3,6.9,6.9,0,0,1,5-2.1,7,7,0,0,1,5.3,1.9,6.6,6.6,0,0,1,1.9,4.8A5.2,5.2,0,0,1,112.7,56.2Zm-6.8-6.1a4.5,4.5,0,0,0-3.1,1.2,4.7,4.7,0,0,0-1.4,2.8h8.8a4.1,4.1,0,0,0-1.1-2.8A4.2,4.2,0,0,0,105.9,50.1Z" style="fill:#dbdbdb"/><path d="M126.2,63.8V54.6a5.8,5.8,0,0,0-.8-3.5,2.8,2.8,0,0,0-2.5-1,3.7,3.7,0,0,0-2,.5,4.5,4.5,0,0,0-1.6,1.4V63.8h-2.8V48h1.9l.9,2a4.9,4.9,0,0,1,4.5-2.3c3.4,0,5.2,2.1,5.2,6.3v9.8Z" style="fill:#dbdbdb"/><path d="M143.5,63.7V62.6a5.6,5.6,0,0,1-4.2,1.4,6,6,0,0,1-4.8-2.1,7.9,7.9,0,0,1-1.9-5.6,9.2,9.2,0,0,1,2.1-6.1,6.5,6.5,0,0,1,5.1-2.5,5.1,5.1,0,0,1,3.7,1.2V41.5h2.8V63.7Zm0-12.1a3.4,3.4,0,0,0-2.9-1.5,4.4,4.4,0,0,0-3.6,1.6,6.4,6.4,0,0,0-1.4,4.3c0,3.8,1.7,5.7,5.2,5.7a3.4,3.4,0,0,0,1.5-.4,2.5,2.5,0,0,0,1.2-.9Z" style="fill:#dbdbdb"/><path d="M159.8,62a6.3,6.3,0,0,1-5.2,2.1,4.6,4.6,0,0,1-4.5-4.7,5.1,5.1,0,0,1,2.1-4.1,8.2,8.2,0,0,1,5.3-1.7,7.9,7.9,0,0,1,2,.4c0-2.5-1.1-3.8-3.4-3.8a5.6,5.6,0,0,0-4,1.4l-1.2-2.3a5.7,5.7,0,0,1,2.2-1.1,8.6,8.6,0,0,1,2.7-.5c2.3,0,3.9.5,5,1.6s1.5,2.7,1.5,4.9v5.7q0,2.1,1.2,2.7V64a5.7,5.7,0,0,1-2.5-.4A2.8,2.8,0,0,1,159.8,62Zm-.3-6-1.8-.3a5.4,5.4,0,0,0-3.5,1.1,3.2,3.2,0,0,0-1.3,2.6c0,1.6.9,2.4,2.9,2.4a4.5,4.5,0,0,0,3.7-2Z" style="fill:#dbdbdb"/><path d="M185.5,63.8v-10c0-2.5-1-3.7-3.2-3.7a3.3,3.3,0,0,0-1.9.6,3.1,3.1,0,0,0-1.2,1.4V63.8h-2.8V52.6a2.3,2.3,0,0,0-.9-1.9,3.9,3.9,0,0,0-2.3-.6,3.8,3.8,0,0,0-1.8.6,3.4,3.4,0,0,0-1.3,1.4V63.8h-2.8V48h1.8l.9,1.8a5.1,5.1,0,0,1,4.1-2.1c2.2,0,3.8.7,4.7,2.1a3.5,3.5,0,0,1,1.8-1.5,5.8,5.8,0,0,1,2.6-.6,4.9,4.9,0,0,1,3.8,1.5,5.5,5.5,0,0,1,1.3,4V63.8Z" style="fill:#dbdbdb"/><path d="M195.5,48V58.1c0,2.4,1.1,3.6,3.2,3.6a4.4,4.4,0,0,0,2.5-.8,3.2,3.2,0,0,0,1.5-1.8V48h2.8V63.8h-2.8V61.6a4,4,0,0,1-1.9,1.7,5.6,5.6,0,0,1-2.7.8,5.1,5.1,0,0,1-4-1.5,6.2,6.2,0,0,1-1.4-4.3V48Z" style="fill:#dbdbdb"/><path d="M208.9,62.8l1-2.6a7.5,7.5,0,0,0,3.7,1.5c1.8,0,2.6-.7,2.6-2.2s-.8-1.9-2.5-2.7a15.1,15.1,0,0,1-2.6-1.3,5.2,5.2,0,0,1-1.1-1,3.5,3.5,0,0,1-.8-1.3,5.9,5.9,0,0,1-.2-1.4,3.6,3.6,0,0,1,1.4-3,6,6,0,0,1,3.7-1.1,12.3,12.3,0,0,1,4.3,1.1l-.8,2.6a5.1,5.1,0,0,0-3.3-1.3,3.1,3.1,0,0,0-1.7.4,1.5,1.5,0,0,0-.7,1.2,2.5,2.5,0,0,0,1.8,2.3l2,.9a7,7,0,0,1,2.6,1.9,4.4,4.4,0,0,1,.9,2.7,4.2,4.2,0,0,1-1.5,3.4,6.5,6.5,0,0,1-4.1,1.2A9.5,9.5,0,0,1,208.9,62.8Z" style="fill:#dbdbdb"/><path d="M221.4,45.6a2.9,2.9,0,0,1,.9-2.2,3.3,3.3,0,0,1,2.3-1,3.2,3.2,0,0,1,2.2,1,3.1,3.1,0,0,1,0,4.4,2.8,2.8,0,0,1-2.2,1,2.9,2.9,0,0,1-2.3-1A2.9,2.9,0,0,1,221.4,45.6Zm5.8,0a2.7,2.7,0,0,0-.8-1.9,2.4,2.4,0,0,0-1.8-.7,2.5,2.5,0,0,0-1.9.7,2.7,2.7,0,0,0,0,3.8,2.5,2.5,0,0,0,1.9.7,2.4,2.4,0,0,0,1.8-.7A2.7,2.7,0,0,0,227.2,45.6Zm-1.7,1.9-.9-1.7H224v1.7h-.6V43.6h1c1,0,1.4.4,1.4,1.1a1.2,1.2,0,0,1-.7,1.1l1,1.7ZM224,44.1v1.3h1.1a.8.8,0,0,0,.2-.6q0-.6-.9-.6H224Z" style="fill:#dbdbdb"/></g></g></svg>